<?xml version="1.0" encoding="utf-8"?>
<!-- Generator: Adobe Illustrator 17.0.2, SVG Export Plug-In . SVG Version: 6.00 Build 0)  -->
<!DOCTYPE svg PUBLIC "-//W3C//DTD SVG 1.1//EN" "http://www.w3.org/Graphics/SVG/1.1/DTD/svg11.dtd">
<svg version="1.1" id="Layer_1" xmlns="http://www.w3.org/2000/svg" xmlns:xlink="http://www.w3.org/1999/xlink" x="0px" y="0px"
	 width="200px" height="63.389px" viewBox="0 0 200 63.389" enable-background="new 0 0 200 63.389" xml:space="preserve">
<g>
	<g>
		<polygon fill="#FFFFFF" points="9.519,47.707 9.519,47.749 10.91,47.707 		"/>
		<path fill="#FFFFFF" d="M13.357,47.707c1.936,0.025,3.244,0.293,4.14,0.877c0.895,0.585,1.343,1.536,1.343,2.851
			c0,2.706-1.828,4.058-5.483,4.058H9.519v-7.744L0.088,48.03v14.7h13.927c1.9,0,3.709-0.2,5.428-0.603
			c1.717-0.401,3.207-1.032,4.468-1.891c1.261-0.859,2.266-1.955,3.016-3.29c0.749-1.334,1.124-2.915,1.124-4.743
			c0-2.041-0.468-3.694-1.399-4.967C26.653,47.236,11.421,47.682,13.357,47.707z"/>
		<path fill="#FFFFFF" d="M20.517,39.473l0.007-0.219c1.03-0.223,1.929-0.598,2.696-1.122c0.766-0.525,1.407-1.136,1.922-1.833
			c0.516-0.697,0.895-1.434,1.139-2.213c0.243-0.778,0.377-1.551,0.401-2.319c0.055-1.753-0.256-3.217-0.933-4.39
			c-0.676-1.173-1.607-2.108-2.793-2.803c-1.185-0.695-2.596-1.206-4.231-1.531c-1.636-0.325-3.385-0.517-5.249-0.575l-12.824-0.4
			L0,42.996l26.577,0.035c-0.146-0.214-0.302-0.42-0.474-0.614C24.884,41.045,23.022,40.064,20.517,39.473z M16.251,35.554
			c-0.753,0.672-1.896,0.983-3.43,0.935L9.642,36.39l0.212-6.795l3.179,0.099c1.534,0.048,2.659,0.321,3.375,0.818
			c0.716,0.499,1.057,1.295,1.022,2.391C17.396,33.999,17.003,34.884,16.251,35.554z"/>
		<path fill="#FFFFFF" d="M61.565,35.488c0.07-2.228-0.256-4.095-0.977-5.599c-0.721-1.503-1.717-2.714-2.986-3.632
			c-1.27-0.917-2.767-1.586-4.49-2.005c-1.725-0.419-3.537-0.659-5.436-0.718l-13.482-0.421l-0.622,19.928l25.237,0.034
			c0.356-0.399,0.693-0.82,0.996-1.277C60.899,40.149,61.485,38.046,61.565,35.488z M46.511,39.736l-3.398-0.106l0.274-8.768
			l3.398,0.106c1.863,0.058,3.27,0.395,4.22,1.009c0.95,0.615,1.401,1.69,1.353,3.224C52.26,38.344,50.311,39.855,46.511,39.736z"/>
		<path fill="#FFFFFF" d="M33.645,62.73h9.431V50.777h3.619l6.141,11.953h10.528l-7.731-13.818c1.268-0.686,2.343-1.571,3.239-2.64
			l-25.226,0.754L33.645,62.73L33.645,62.73z"/>
		<path fill="#FFFFFF" d="M98.773,35.005c-0.733-2.29-1.797-4.243-3.191-5.86c-1.395-1.616-3.102-2.858-5.123-3.726
			c-2.021-0.867-4.256-1.339-6.703-1.416c-2.485-0.078-4.753,0.254-6.806,0.994c-2.053,0.741-3.825,1.865-5.317,3.373
			c-1.492,1.508-2.676,3.391-3.55,5.649c-0.875,2.258-1.358,4.849-1.45,7.772c-0.014,0.442,0,0.865,0.005,1.294l9.633,0.013
			c-0.003-0.329-0.004-0.662,0.007-1.006c0.102-3.252,0.791-5.744,2.071-7.478c1.279-1.734,2.996-2.567,5.152-2.5
			c2.155,0.067,3.817,1.006,4.986,2.816c1.168,1.811,1.702,4.341,1.601,7.593c-0.006,0.203-0.022,0.395-0.033,0.593l9.658,0.013
			c0.004-0.104,0.017-0.2,0.02-0.305C99.827,39.902,99.506,37.296,98.773,35.005z"/>
		<path fill="#FFFFFF" d="M88.283,52.45c-1.225,1.883-2.916,2.824-5.072,2.824c-2.157,0-3.848-0.941-5.072-2.824
			c-1.096-1.683-1.697-3.919-1.813-6.698l-9.629,0.288c0.103,2.404,0.478,4.605,1.161,6.575c0.804,2.322,1.928,4.277,3.372,5.867
			s3.18,2.806,5.209,3.646c2.029,0.841,4.285,1.261,6.772,1.261c2.448,0,4.697-0.42,6.744-1.261c2.047-0.84,3.792-2.056,5.236-3.646
			c1.444-1.591,2.568-3.545,3.372-5.867c0.775-2.238,1.168-4.764,1.195-7.563l-9.654,0.289C90.034,48.31,89.431,50.685,88.283,52.45
			z"/>
		<polygon fill="#FFFFFF" points="135.58,26.279 125.277,25.958 115.875,38.94 115.656,38.933 116.07,25.67 106.644,25.376 
			106.089,43.138 126.034,43.164 124.497,40.416 		"/>
		<polygon fill="#FFFFFF" points="106.13,62.73 115.561,62.73 115.561,53.848 118.96,49.023 126.856,62.73 137.164,62.73 
			126.066,44.265 106.13,44.861 		"/>
		<path fill="#FFFFFF" d="M149.994,54.835v-6.361h11.624l0.066-7.885l-11.618-0.363l0.175-5.59l13.592,0.424l0.246-7.892
			L141.06,26.45l-0.516,16.343c0,0,4.761,0.203,4.761,0.586s-4.761,0.886-4.761,0.886l0.019,18.466h23.577v-7.896H149.994z"/>
		<path fill="#FFFFFF" d="M191.008,27.09v10.308c0,1.097,0.045,2.24,0.137,3.427c0.091,1.188,0.192,2.377,0.302,3.564
			c0.11,1.188,0.237,2.349,0.384,3.482c0.146,1.133,0.274,2.175,0.384,3.125h-0.219l-3.399-8.005L180.7,27.09h-9.65v35.64h8.992
			V52.422c0-2.193-0.146-4.496-0.438-6.909c-0.293-2.412-0.548-4.641-0.768-6.689h0.219l3.4,7.95l7.896,15.956H200V27.09H191.008z"
			/>
	</g>
	<g>
		<g>
			<path fill="#E9494A" d="M56.774,3.114v11.631h-3.217V3.114h-4.083V0.33h11.384v2.784C60.858,3.114,56.774,3.114,56.774,3.114z"/>
			<path fill="#E9494A" d="M72.159,0.33h3.217v14.416h-3.217V9.074h-5.733v5.671h-3.217V0.33h3.217v6.022h5.733V0.33z"/>
			<path fill="#E9494A" d="M78.923,0.33h3.217v14.416h-3.217V0.33z"/>
			<path fill="#E9494A" d="M89.059,3.207c-0.309,0.255-0.464,0.591-0.464,1.01c0,0.42,0.189,0.753,0.567,1
				c0.378,0.247,1.251,0.54,2.619,0.877c1.368,0.337,2.43,0.842,3.186,1.516s1.134,1.657,1.134,2.949
				c0,1.293-0.485,2.341-1.454,3.145c-0.969,0.804-2.245,1.206-3.826,1.206c-2.282,0-4.338-0.846-6.166-2.537l1.918-2.351
				c1.554,1.361,2.991,2.042,4.31,2.042c0.591,0,1.055-0.127,1.392-0.382c0.337-0.254,0.505-0.598,0.505-1.031
				s-0.179-0.777-0.536-1.031c-0.358-0.254-1.066-0.512-2.124-0.773c-1.676-0.398-2.903-0.917-3.68-1.557
				c-0.777-0.639-1.165-1.643-1.165-3.011s0.492-2.423,1.475-3.166C87.732,0.371,88.959,0,90.431,0c0.962,0,1.925,0.165,2.887,0.495
				s1.801,0.797,2.516,1.402l-1.629,2.351c-1.251-0.949-2.544-1.423-3.877-1.423C89.791,2.825,89.368,2.953,89.059,3.207z"/>
			<path fill="#E9494A" d="M108.785,8.62l2.557-8.291h3.362l2.537,8.291l2.866-8.291h3.485l-5.032,14.416h-2.392l-3.155-10.023
				l-3.135,10.023h-2.392L102.454,0.33h3.485L108.785,8.62z"/>
			<path fill="#E9494A" d="M134.812,14.746l-1.341-3.114h-6.043l-1.34,3.114h-3.424l6.228-14.416h3.114l6.228,14.416H134.812z
				 M130.46,4.62l-1.815,4.187h3.609L130.46,4.62z"/>
			<path fill="#E9494A" d="M143.484,3.207c-0.309,0.255-0.464,0.591-0.464,1.01c0,0.42,0.189,0.753,0.567,1
				c0.378,0.247,1.251,0.54,2.619,0.877s2.43,0.842,3.186,1.516c0.756,0.674,1.134,1.657,1.134,2.949
				c0,1.293-0.485,2.341-1.454,3.145c-0.969,0.804-2.245,1.206-3.826,1.206c-2.282,0-4.338-0.846-6.166-2.537l1.918-2.351
				c1.554,1.361,2.99,2.042,4.31,2.042c0.591,0,1.055-0.127,1.392-0.382c0.337-0.254,0.505-0.598,0.505-1.031
				s-0.179-0.777-0.536-1.031c-0.358-0.254-1.066-0.512-2.124-0.773c-1.677-0.399-2.905-0.918-3.681-1.557
				c-0.777-0.639-1.165-1.643-1.165-3.011s0.492-2.423,1.475-3.166C142.157,0.371,143.384,0,144.855,0
				c0.962,0,1.925,0.165,2.887,0.495c0.962,0.33,1.801,0.797,2.516,1.402l-1.629,2.351c-1.251-0.949-2.544-1.423-3.877-1.423
				C144.216,2.825,143.793,2.953,143.484,3.207z"/>
		</g>
	</g>
</g>
</svg>
